<svg width="25" height="25" viewBox="0 0 25 25" fill="none" xmlns="http://www.w3.org/2000/svg">
<path d="M17.5049 2.61377H7.50488C4.74346 2.61377 2.50488 4.85235 2.50488 7.61377V17.6138C2.50488 20.3752 4.74346 22.6138 7.50488 22.6138H17.5049C20.2663 22.6138 22.5049 20.3752 22.5049 17.6138V7.61377C22.5049 4.85235 20.2663 2.61377 17.5049 2.61377Z" stroke="white" stroke-width="2" stroke-linecap="round" stroke-linejoin="round"/>
<path d="M16.5049 11.9838C16.6283 12.8161 16.4862 13.666 16.0987 14.4128C15.7112 15.1596 15.098 15.7652 14.3465 16.1435C13.595 16.5218 12.7433 16.6534 11.9127 16.5198C11.082 16.3861 10.3147 15.9939 9.71973 15.399C9.12481 14.8041 8.73263 14.0367 8.59896 13.206C8.4653 12.3754 8.59696 11.5237 8.97522 10.7722C9.35348 10.0207 9.95908 9.40757 10.7059 9.02007C11.4527 8.63257 12.3026 8.49042 13.1349 8.61383C13.9838 8.73971 14.7697 9.13529 15.3766 9.74213C15.9834 10.349 16.379 11.1349 16.5049 11.9838Z" stroke="white" stroke-width="2" stroke-linecap="round" stroke-linejoin="round"/>
<path d="M18.0049 7.11377H18.0149" stroke="white" stroke-width="2" stroke-linecap="round" stroke-linejoin="round"/>
</svg>
