<svg width="620" height="236" viewBox="0 0 620 236" fill="none" xmlns="http://www.w3.org/2000/svg">
<g filter="url(#filter0_i)">
<path d="M33.8965 76.626H51.7334V138.579C51.7334 148.439 50.9505 155.358 49.3848 159.336C47.819 163.314 45.2376 166.488 41.6406 168.857C38.0436 171.185 33.7272 172.349 28.6914 172.349C18.4082 172.349 9.64844 167.842 2.41211 158.828L15.2344 146.831C18.0697 150.047 20.4818 152.205 22.4707 153.306C24.4596 154.406 26.3851 154.956 28.2471 154.956C30.1514 154.956 31.569 154.152 32.5 152.544C33.431 150.936 33.8965 147.402 33.8965 141.943V76.626ZM71.1572 100.938H88.6768V134.199C88.6768 140.674 89.1211 145.181 90.0098 147.72C90.8984 150.216 92.3161 152.163 94.2627 153.56C96.2516 154.956 98.6849 155.654 101.562 155.654C104.44 155.654 106.873 154.977 108.862 153.623C110.894 152.227 112.396 150.195 113.369 147.529C114.089 145.54 114.448 141.287 114.448 134.771V100.938H131.841V130.2C131.841 142.261 130.889 150.513 128.984 154.956C126.657 160.373 123.229 164.541 118.701 167.461C114.173 170.339 108.418 171.777 101.436 171.777C93.8607 171.777 87.7246 170.085 83.0273 166.699C78.3724 163.314 75.0928 158.595 73.1885 152.544C71.8343 148.354 71.1572 140.737 71.1572 129.692V100.938ZM141.87 100.938H159.517L176.973 141.689L194.365 100.938H211.948L182.559 170H171.323L141.87 100.938ZM291.357 140.483H235.688C236.493 145.392 238.63 149.307 242.1 152.227C245.612 155.104 250.076 156.543 255.493 156.543C261.968 156.543 267.533 154.279 272.188 149.751L286.787 156.606C283.148 161.769 278.789 165.599 273.711 168.096C268.633 170.55 262.603 171.777 255.62 171.777C244.787 171.777 235.964 168.371 229.15 161.558C222.337 154.702 218.931 146.133 218.931 135.85C218.931 125.312 222.316 116.574 229.087 109.634C235.9 102.651 244.427 99.1602 254.668 99.1602C265.544 99.1602 274.388 102.651 281.201 109.634C288.014 116.574 291.421 125.757 291.421 137.183L291.357 140.483ZM273.965 126.836C272.822 122.985 270.558 119.854 267.173 117.441C263.83 115.029 259.937 113.823 255.493 113.823C250.669 113.823 246.437 115.177 242.798 117.886C240.513 119.578 238.397 122.562 236.45 126.836H273.965ZM305.449 100.938H322.715V107.983C326.65 104.683 330.205 102.397 333.379 101.128C336.595 99.8161 339.875 99.1602 343.218 99.1602C350.073 99.1602 355.892 101.551 360.674 106.333C364.694 110.396 366.704 116.405 366.704 124.36V170H349.565V139.722C349.565 131.47 349.185 125.99 348.423 123.281C347.703 120.573 346.413 118.521 344.551 117.124C342.731 115.685 340.467 114.966 337.759 114.966C334.246 114.966 331.221 116.151 328.682 118.521C326.185 120.848 324.45 124.085 323.477 128.232C322.969 130.391 322.715 135.067 322.715 142.261V170H305.449V100.938ZM434.561 100.938H451.826V170H434.561V162.7C431.175 165.916 427.769 168.244 424.341 169.683C420.955 171.079 417.274 171.777 413.296 171.777C404.367 171.777 396.644 168.328 390.127 161.431C383.61 154.491 380.352 145.879 380.352 135.596C380.352 124.932 383.504 116.193 389.81 109.38C396.115 102.567 403.774 99.1602 412.788 99.1602C416.935 99.1602 420.828 99.943 424.468 101.509C428.107 103.075 431.471 105.423 434.561 108.555V100.938ZM416.343 115.156C410.968 115.156 406.504 117.061 402.949 120.869C399.395 124.635 397.617 129.481 397.617 135.405C397.617 141.372 399.416 146.281 403.013 150.132C406.652 153.983 411.117 155.908 416.406 155.908C421.865 155.908 426.393 154.025 429.99 150.259C433.587 146.45 435.386 141.478 435.386 135.342C435.386 129.333 433.587 124.466 429.99 120.742C426.393 117.018 421.844 115.156 416.343 115.156Z" fill="url(#paint0_radial)"/>
<path d="M34.1406 198.777L29.7383 202.978C26.7435 199.818 23.3743 198.238 19.6309 198.238C16.4714 198.238 13.806 199.316 11.6348 201.473C9.47852 203.629 8.40039 206.287 8.40039 209.446C8.40039 211.647 8.87956 213.602 9.83789 215.309C10.7962 217.016 12.1514 218.356 13.9033 219.329C15.6553 220.302 17.6019 220.789 19.7432 220.789C21.57 220.789 23.2396 220.452 24.752 219.778C26.2643 219.09 27.9264 217.847 29.7383 216.05L34.0059 220.497C31.5651 222.878 29.2591 224.533 27.0879 225.461C24.9167 226.374 22.4385 226.831 19.6533 226.831C14.5173 226.831 10.3096 225.206 7.03027 221.957C3.76595 218.693 2.13379 214.515 2.13379 209.424C2.13379 206.13 2.875 203.202 4.35742 200.642C5.85482 198.081 7.98861 196.022 10.7588 194.465C13.5439 192.908 16.5387 192.129 19.7432 192.129C22.4684 192.129 25.0889 192.705 27.6045 193.858C30.1351 195.011 32.3138 196.651 34.1406 198.777ZM55.2764 192.129C59.9482 192.129 63.9613 193.821 67.3154 197.205C70.6846 200.589 72.3691 204.715 72.3691 209.581C72.3691 214.403 70.707 218.483 67.3828 221.822C64.0736 225.161 60.0531 226.831 55.3213 226.831C50.3649 226.831 46.2471 225.117 42.9678 221.688C39.6885 218.258 38.0488 214.186 38.0488 209.469C38.0488 206.309 38.8125 203.404 40.3398 200.754C41.8672 198.104 43.9635 196.007 46.6289 194.465C49.3092 192.908 52.1917 192.129 55.2764 192.129ZM55.209 198.283C52.1543 198.283 49.5863 199.346 47.5049 201.473C45.4235 203.599 44.3828 206.302 44.3828 209.581C44.3828 213.235 45.693 216.125 48.3135 218.251C50.3499 219.913 52.6859 220.744 55.3213 220.744C58.3011 220.744 60.8392 219.666 62.9355 217.51C65.0319 215.354 66.0801 212.696 66.0801 209.536C66.0801 206.392 65.0244 203.734 62.9131 201.562C60.8018 199.376 58.2337 198.283 55.209 198.283ZM78.2988 192.96H84.5879V220.003H93.752V226H78.2988V192.96ZM98.5586 192.96H104.848V220.003H114.012V226H98.5586V192.96ZM128.881 192.96H135.26L147.973 226H141.437L138.854 219.194H125.377L122.682 226H116.146L128.881 192.96ZM132.115 201.72L127.713 213.062H136.495L132.115 201.72ZM183.371 198.351L178.946 202.73C176.146 199.766 172.882 198.283 169.153 198.283C165.904 198.283 163.179 199.361 160.978 201.518C158.791 203.674 157.698 206.294 157.698 209.379C157.698 212.568 158.836 215.271 161.112 217.487C163.388 219.703 166.196 220.812 169.535 220.812C171.706 220.812 173.533 220.355 175.016 219.441C176.513 218.528 177.718 217.098 178.632 215.151H169.063V209.244H185.685L185.729 210.637C185.729 213.527 184.981 216.267 183.483 218.857C181.986 221.448 180.047 223.424 177.666 224.787C175.285 226.15 172.493 226.831 169.288 226.831C165.859 226.831 162.797 226.09 160.102 224.607C157.421 223.11 155.295 220.984 153.723 218.229C152.165 215.473 151.387 212.501 151.387 209.312C151.387 204.939 152.832 201.136 155.722 197.901C159.151 194.053 163.613 192.129 169.108 192.129C171.983 192.129 174.671 192.66 177.172 193.724C179.283 194.622 181.35 196.164 183.371 198.351ZM191.524 192.96H209.561V199.114H197.769V205.089H209.561V211.131H197.769V219.823H209.561V226H191.524V192.96ZM215.468 192.96H221.487L235.66 214.702V192.96H241.949V226H235.907L221.757 204.325V226H215.468V192.96ZM262.366 192.96H269.037C272.646 192.96 275.244 193.297 276.831 193.971C278.433 194.63 279.691 195.708 280.604 197.205C281.533 198.688 281.997 200.469 281.997 202.551C281.997 204.857 281.391 206.773 280.178 208.301C278.98 209.828 277.348 210.891 275.281 211.49C274.068 211.835 271.86 212.007 268.655 212.007V226H262.366V192.96ZM268.655 205.875H270.654C272.227 205.875 273.32 205.763 273.934 205.538C274.548 205.313 275.027 204.947 275.371 204.438C275.73 203.913 275.91 203.285 275.91 202.551C275.91 201.278 275.416 200.35 274.428 199.766C273.709 199.331 272.376 199.114 270.43 199.114H268.655V205.875ZM288.196 192.96H306.232V199.114H294.44V205.089H306.232V211.131H294.44V219.823H306.232V226H288.196V192.96ZM312.095 192.96H318.766C322.374 192.96 324.972 193.297 326.56 193.971C328.162 194.63 329.42 195.708 330.333 197.205C331.261 198.688 331.726 200.469 331.726 202.551C331.726 204.857 331.119 206.773 329.906 208.301C328.708 209.828 327.076 210.891 325.01 211.49C323.797 211.835 321.588 212.007 318.384 212.007V226H312.095V192.96ZM318.384 205.875H320.383C321.955 205.875 323.048 205.763 323.662 205.538C324.276 205.313 324.755 204.947 325.1 204.438C325.459 203.913 325.639 203.285 325.639 202.551C325.639 201.278 325.145 200.35 324.156 199.766C323.438 199.331 322.105 199.114 320.158 199.114H318.384V205.875ZM334.646 192.96H352.906V199.159H346.887V226H340.508V199.159H334.646V192.96ZM356.77 192.96H363.014V226H356.77V192.96ZM370.134 192.96H377.591C382.397 192.96 385.969 193.559 388.305 194.757C390.641 195.94 392.565 197.871 394.077 200.552C395.59 203.232 396.346 206.362 396.346 209.94C396.346 212.486 395.919 214.829 395.065 216.971C394.227 219.097 393.059 220.864 391.562 222.271C390.079 223.679 388.469 224.652 386.732 225.191C384.995 225.73 381.986 226 377.703 226H370.134V192.96ZM376.4 199.024V219.846H379.32C382.195 219.846 384.277 219.516 385.564 218.857C386.867 218.199 387.93 217.09 388.754 215.533C389.577 213.976 389.989 212.059 389.989 209.783C389.989 206.279 389.008 203.562 387.047 201.63C385.28 199.893 382.442 199.024 378.534 199.024H376.4ZM402.343 192.96H420.379V199.114H408.587V205.089H420.379V211.131H408.587V219.823H420.379V226H402.343V192.96ZM443.581 197.452L438.932 201.562C437.299 199.286 435.637 198.148 433.945 198.148C433.122 198.148 432.448 198.373 431.924 198.822C431.4 199.257 431.138 199.751 431.138 200.305C431.138 200.859 431.325 201.383 431.699 201.877C432.208 202.536 433.743 203.951 436.304 206.122C438.7 208.129 440.152 209.394 440.661 209.918C441.934 211.206 442.832 212.441 443.356 213.624C443.896 214.792 444.165 216.072 444.165 217.465C444.165 220.175 443.229 222.414 441.357 224.181C439.486 225.948 437.045 226.831 434.035 226.831C431.684 226.831 429.633 226.255 427.881 225.102C426.144 223.949 424.654 222.137 423.411 219.666L428.689 216.477C430.277 219.396 432.104 220.856 434.17 220.856C435.248 220.856 436.154 220.542 436.888 219.913C437.621 219.284 437.988 218.558 437.988 217.734C437.988 216.986 437.711 216.237 437.157 215.488C436.603 214.74 435.383 213.594 433.496 212.052C429.902 209.117 427.581 206.856 426.533 205.269C425.485 203.666 424.961 202.072 424.961 200.484C424.961 198.193 425.829 196.232 427.566 194.6C429.318 192.952 431.475 192.129 434.035 192.129C435.682 192.129 437.247 192.511 438.729 193.274C440.227 194.038 441.844 195.431 443.581 197.452Z" fill="url(#paint1_linear)"/>
</g>
<g filter="url(#filter1_i)">
<path d="M44.6875 18.0312H53.25L63.875 50.0938L74.6562 18.0312H83.0938L90.8438 64H82.4062L77.4688 34.9688L67.6875 64H59.9688L50.3125 34.9688L45.2812 64H36.75L44.6875 18.0312ZM122.062 30H130.562V64H122.062V60.4062C120.396 61.9896 118.719 63.1354 117.031 63.8438C115.365 64.5312 113.552 64.875 111.594 64.875C107.198 64.875 103.396 63.1771 100.188 59.7812C96.9792 56.3646 95.375 52.125 95.375 47.0625C95.375 41.8125 96.9271 37.5104 100.031 34.1562C103.135 30.8021 106.906 29.125 111.344 29.125C113.385 29.125 115.302 29.5104 117.094 30.2812C118.885 31.0521 120.542 32.2083 122.062 33.75V30ZM113.094 37C110.448 37 108.25 37.9375 106.5 39.8125C104.75 41.6667 103.875 44.0521 103.875 46.9688C103.875 49.9062 104.76 52.3229 106.531 54.2188C108.323 56.1146 110.521 57.0625 113.125 57.0625C115.812 57.0625 118.042 56.1354 119.812 54.2812C121.583 52.4062 122.469 49.9583 122.469 46.9375C122.469 43.9792 121.583 41.5833 119.812 39.75C118.042 37.9167 115.802 37 113.094 37ZM137.188 30H144.5V34.2812C145.292 32.5938 146.344 31.3125 147.656 30.4375C148.969 29.5625 150.406 29.125 151.969 29.125C153.073 29.125 154.229 29.4167 155.438 30L152.781 37.3438C151.781 36.8438 150.958 36.5938 150.312 36.5938C149 36.5938 147.885 37.4062 146.969 39.0312C146.073 40.6562 145.625 43.8438 145.625 48.5938L145.656 50.25V64H137.188V30ZM163.031 16C164.531 16 165.812 16.5417 166.875 17.625C167.958 18.7083 168.5 20.0208 168.5 21.5625C168.5 23.0833 167.969 24.3854 166.906 25.4688C165.844 26.5312 164.573 27.0625 163.094 27.0625C161.573 27.0625 160.271 26.5208 159.188 25.4375C158.125 24.3333 157.594 23 157.594 21.4375C157.594 19.9375 158.125 18.6562 159.188 17.5938C160.25 16.5312 161.531 16 163.031 16ZM158.75 30H167.312V64H158.75V30ZM175.062 30H183.562V33.4688C185.5 31.8438 187.25 30.7188 188.812 30.0938C190.396 29.4479 192.01 29.125 193.656 29.125C197.031 29.125 199.896 30.3021 202.25 32.6562C204.229 34.6562 205.219 37.6146 205.219 41.5312V64H196.781V49.0938C196.781 45.0312 196.594 42.3333 196.219 41C195.865 39.6667 195.229 38.6562 194.312 37.9688C193.417 37.2604 192.302 36.9062 190.969 36.9062C189.24 36.9062 187.75 37.4896 186.5 38.6562C185.271 39.8021 184.417 41.3958 183.938 43.4375C183.688 44.5 183.562 46.8021 183.562 50.3438V64H175.062V30ZM247.562 49.4688H220.156C220.552 51.8854 221.604 53.8125 223.312 55.25C225.042 56.6667 227.24 57.375 229.906 57.375C233.094 57.375 235.833 56.2604 238.125 54.0312L245.312 57.4062C243.521 59.9479 241.375 61.8333 238.875 63.0625C236.375 64.2708 233.406 64.875 229.969 64.875C224.635 64.875 220.292 63.1979 216.938 59.8438C213.583 56.4688 211.906 52.25 211.906 47.1875C211.906 42 213.573 37.6979 216.906 34.2812C220.26 30.8438 224.458 29.125 229.5 29.125C234.854 29.125 239.208 30.8438 242.562 34.2812C245.917 37.6979 247.594 42.2188 247.594 47.8438L247.562 49.4688ZM239 42.75C238.438 40.8542 237.323 39.3125 235.656 38.125C234.01 36.9375 232.094 36.3438 229.906 36.3438C227.531 36.3438 225.448 37.0104 223.656 38.3438C222.531 39.1771 221.49 40.6458 220.531 42.75H239Z" fill="url(#paint2_linear)"/>
</g>
<defs>
<filter id="filter0_i" x="2.13379" y="76.626" width="449.692" height="154.205" filterUnits="userSpaceOnUse" color-interpolation-filters="sRGB">
<feFlood flood-opacity="0" result="BackgroundImageFix"/>
<feBlend mode="normal" in="SourceGraphic" in2="BackgroundImageFix" result="shape"/>
<feColorMatrix in="SourceAlpha" type="matrix" values="0 0 0 0 0 0 0 0 0 0 0 0 0 0 0 0 0 0 127 0" result="hardAlpha"/>
<feOffset dy="4"/>
<feGaussianBlur stdDeviation="2"/>
<feComposite in2="hardAlpha" operator="arithmetic" k2="-1" k3="1"/>
<feColorMatrix type="matrix" values="0 0 0 0 0 0 0 0 0 0 0 0 0 0 0 0 0 0 0.25 0"/>
<feBlend mode="normal" in2="shape" result="effect1_innerShadow"/>
</filter>
<filter id="filter1_i" x="36.75" y="16" width="210.844" height="52.875" filterUnits="userSpaceOnUse" color-interpolation-filters="sRGB">
<feFlood flood-opacity="0" result="BackgroundImageFix"/>
<feBlend mode="normal" in="SourceGraphic" in2="BackgroundImageFix" result="shape"/>
<feColorMatrix in="SourceAlpha" type="matrix" values="0 0 0 0 0 0 0 0 0 0 0 0 0 0 0 0 0 0 127 0" result="hardAlpha"/>
<feOffset dy="4"/>
<feGaussianBlur stdDeviation="2"/>
<feComposite in2="hardAlpha" operator="arithmetic" k2="-1" k3="1"/>
<feColorMatrix type="matrix" values="0 0 0 0 0 0 0 0 0 0 0 0 0 0 0 0 0 0 0.25 0"/>
<feBlend mode="normal" in2="shape" result="effect1_innerShadow"/>
</filter>
<radialGradient id="paint0_radial" cx="0" cy="0" r="1" gradientUnits="userSpaceOnUse" gradientTransform="translate(276.976 -6.14582) rotate(87.4155) scale(235.545 681.809)">
<stop offset="0.0001" stop-color="#18ACFF"/>
<stop offset="1" stop-color="#555CFF"/>
</radialGradient>
<linearGradient id="paint1_linear" x1="292.5" y1="39" x2="292.5" y2="236" gradientUnits="userSpaceOnUse">
<stop stop-color="#003D44"/>
<stop offset="1" stop-color="#008383"/>
</linearGradient>
<linearGradient id="paint2_linear" x1="327.5" y1="0" x2="327.5" y2="78" gradientUnits="userSpaceOnUse">
<stop stop-color="#007475"/>
<stop offset="1" stop-color="#008383"/>
</linearGradient>
</defs>
</svg>
