<?xml version="1.0" encoding="UTF-8" standalone="no"?>
<svg
   xmlns:dc="http://purl.org/dc/elements/1.1/"
   xmlns:cc="http://creativecommons.org/ns#"
   xmlns:rdf="http://www.w3.org/1999/02/22-rdf-syntax-ns#"
   xmlns:svg="http://www.w3.org/2000/svg"
   xmlns="http://www.w3.org/2000/svg"
   xmlns:sodipodi="http://sodipodi.sourceforge.net/DTD/sodipodi-0.dtd"
   xmlns:inkscape="http://www.inkscape.org/namespaces/inkscape"
   width="454"
   height="236"
   viewBox="0 0 454 236"
   fill="none"
   version="1.1"
   id="svg63"
   sodipodi:docname="main-title.svg"
   inkscape:version="1.0.1 (3bc2e813f5, 2020-09-07)">
  <metadata
     id="metadata67">
    <rdf:RDF>
      <cc:Work
         rdf:about="">
        <dc:format>image/svg+xml</dc:format>
        <dc:type
           rdf:resource="http://purl.org/dc/dcmitype/StillImage" />
        <dc:title></dc:title>
      </cc:Work>
    </rdf:RDF>
  </metadata>
  <sodipodi:namedview
     pagecolor="#ffffff"
     bordercolor="#666666"
     borderopacity="1"
     objecttolerance="10"
     gridtolerance="10"
     guidetolerance="10"
     inkscape:pageopacity="0"
     inkscape:pageshadow="2"
     inkscape:window-width="1920"
     inkscape:window-height="1017"
     id="namedview65"
     showgrid="false"
     inkscape:zoom="1.0491935"
     inkscape:cx="23.713532"
     inkscape:cy="104.79464"
     inkscape:window-x="-8"
     inkscape:window-y="-8"
     inkscape:window-maximized="1"
     inkscape:current-layer="svg63" />
  <g
     filter="url(#filter0_i)"
     id="g6">
    <path
       d="m 33.8965,76.626 h 17.8369 v 61.953 c 0,9.86 -0.7829,16.779 -2.3486,20.757 -1.5658,3.978 -4.1472,7.152 -7.7442,9.521 -3.597,2.328 -7.9134,3.492 -12.9492,3.492 -10.2832,0 -19.04296,-4.507 -26.27929,-13.521 L 15.2344,146.831 c 2.8353,3.216 5.2474,5.374 7.2363,6.475 1.9889,1.1 3.9144,1.65 5.7764,1.65 1.9043,0 3.3219,-0.804 4.2529,-2.412 0.931,-1.608 1.3965,-5.142 1.3965,-10.601 z m 37.2607,24.312 h 17.5196 v 33.261 c 0,6.475 0.4443,10.982 1.333,13.521 0.8886,2.496 2.3063,4.443 4.2529,5.84 1.9889,1.396 4.4222,2.094 7.2993,2.094 2.878,0 5.311,-0.677 7.3,-2.031 2.032,-1.396 3.534,-3.428 4.507,-6.094 0.72,-1.989 1.079,-6.242 1.079,-12.758 v -33.833 h 17.393 V 130.2 c 0,12.061 -0.952,20.313 -2.857,24.756 -2.327,5.417 -5.755,9.585 -10.283,12.505 -4.528,2.878 -10.283,4.316 -17.265,4.316 -7.5753,0 -13.7114,-1.692 -18.4087,-5.078 -4.6549,-3.385 -7.9345,-8.104 -9.8388,-14.155 -1.3542,-4.19 -2.0313,-11.807 -2.0313,-22.852 z m 70.7128,0 h 17.647 l 17.456,40.751 17.392,-40.751 h 17.583 L 182.559,170 h -11.236 z m 149.487,39.545 h -55.669 c 0.805,4.909 2.942,8.824 6.412,11.744 3.512,2.877 7.976,4.316 13.393,4.316 6.475,0 12.04,-2.264 16.695,-6.792 l 14.599,6.855 c -3.639,5.163 -7.998,8.993 -13.076,11.49 -5.078,2.454 -11.108,3.681 -18.091,3.681 -10.833,0 -19.656,-3.406 -26.47,-10.219 -6.813,-6.856 -10.219,-15.425 -10.219,-25.708 0,-10.538 3.385,-19.276 10.156,-26.216 6.813,-6.983 15.34,-10.4738 25.581,-10.4738 10.876,0 19.72,3.4908 26.533,10.4738 6.813,6.94 10.22,16.123 10.22,27.549 z m -17.392,-13.647 c -1.143,-3.851 -3.407,-6.982 -6.792,-9.395 -3.343,-2.412 -7.236,-3.618 -11.68,-3.618 -4.824,0 -9.056,1.354 -12.695,4.063 -2.285,1.692 -4.401,4.676 -6.348,8.95 z m 31.484,-25.898 h 17.266 v 7.045 c 3.935,-3.3 7.49,-5.586 10.664,-6.855 3.216,-1.3119 6.496,-1.9678 9.839,-1.9678 6.855,0 12.674,2.3908 17.456,7.1728 4.02,4.063 6.03,10.072 6.03,18.027 V 170 h -17.139 v -30.278 c 0,-8.252 -0.38,-13.732 -1.142,-16.441 -0.72,-2.708 -2.01,-4.76 -3.872,-6.157 -1.82,-1.439 -4.084,-2.158 -6.792,-2.158 -3.513,0 -6.538,1.185 -9.077,3.555 -2.497,2.327 -4.232,5.564 -5.205,9.711 -0.508,2.159 -0.762,6.835 -0.762,14.029 V 170 h -17.266 z m 129.112,0 h 17.265 V 170 h -17.265 v -7.3 c -3.386,3.216 -6.792,5.544 -10.22,6.983 -3.386,1.396 -7.067,2.094 -11.045,2.094 -8.929,0 -16.652,-3.449 -23.169,-10.346 -6.517,-6.94 -9.775,-15.552 -9.775,-25.835 0,-10.664 3.152,-19.403 9.458,-26.216 6.305,-6.813 13.964,-10.2198 22.978,-10.2198 4.147,0 8.04,0.7828 11.68,2.3488 3.639,1.566 7.003,3.914 10.093,7.046 z m -18.218,14.218 c -5.375,0 -9.839,1.905 -13.394,5.713 -3.554,3.766 -5.332,8.612 -5.332,14.536 0,5.967 1.799,10.876 5.396,14.727 3.639,3.851 8.104,5.776 13.393,5.776 5.459,0 9.987,-1.883 13.584,-5.649 3.597,-3.809 5.396,-8.781 5.396,-14.917 0,-6.009 -1.799,-10.876 -5.396,-14.6 -3.597,-3.724 -8.146,-5.586 -13.647,-5.586 z"
       fill="url(#paint0_radial)"
       id="path2" />
    <path
       d="m 34.1406,198.777 -4.4023,4.201 c -2.9948,-3.16 -6.364,-4.74 -10.1074,-4.74 -3.1595,0 -5.8249,1.078 -7.9961,3.235 -2.15628,2.156 -3.23441,4.814 -3.23441,7.973 0,2.201 0.47917,4.156 1.4375,5.863 0.95831,1.707 2.31351,3.047 4.06541,4.02 1.752,0.973 3.6986,1.46 5.8399,1.46 1.8268,0 3.4964,-0.337 5.0088,-1.011 1.5123,-0.688 3.1744,-1.931 4.9863,-3.728 l 4.2676,4.447 c -2.4408,2.381 -4.7468,4.036 -6.918,4.964 -2.1712,0.913 -4.6494,1.37 -7.4346,1.37 -5.136,0 -9.3437,-1.625 -12.62303,-4.874 -3.26432,-3.264 -4.89648,-7.442 -4.89648,-12.533 0,-3.294 0.74121,-6.222 2.22363,-8.782 1.4974,-2.561 3.63119,-4.62 6.40138,-6.177 2.7851,-1.557 5.7799,-2.336 8.9844,-2.336 2.7252,0 5.3457,0.576 7.8613,1.729 2.5306,1.153 4.7093,2.793 6.5361,4.919 z m 21.1358,-6.648 c 4.6718,0 8.6849,1.692 12.039,5.076 3.3692,3.384 5.0537,7.51 5.0537,12.376 0,4.822 -1.6621,8.902 -4.9863,12.241 -3.3092,3.339 -7.3297,5.009 -12.0615,5.009 -4.9564,0 -9.0742,-1.714 -12.3535,-5.143 -3.2793,-3.43 -4.919,-7.502 -4.919,-12.219 0,-3.16 0.7637,-6.065 2.291,-8.715 1.5274,-2.65 3.6237,-4.747 6.2891,-6.289 2.6803,-1.557 5.5628,-2.336 8.6475,-2.336 z m -0.0674,6.154 c -3.0547,0 -5.6227,1.063 -7.7041,3.19 -2.0814,2.126 -3.1221,4.829 -3.1221,8.108 0,3.654 1.3102,6.544 3.9307,8.67 2.0364,1.662 4.3724,2.493 7.0078,2.493 2.9798,0 5.5179,-1.078 7.6142,-3.234 2.0964,-2.156 3.1446,-4.814 3.1446,-7.974 0,-3.144 -1.0557,-5.802 -3.167,-7.974 -2.1113,-2.186 -4.6794,-3.279 -7.7041,-3.279 z m 23.0898,-5.323 h 6.2891 v 27.043 H 93.752 V 226 H 78.2988 Z m 20.2598,0 h 6.2894 v 27.043 h 9.164 V 226 H 98.5586 Z m 30.3224,0 h 6.379 L 147.973,226 h -6.536 l -2.583,-6.806 H 125.377 L 122.682,226 h -6.536 z m 3.234,8.76 -4.402,11.342 h 8.782 z m 51.256,-3.369 -4.425,4.379 c -2.8,-2.964 -6.064,-4.447 -9.793,-4.447 -3.249,0 -5.974,1.078 -8.175,3.235 -2.187,2.156 -3.28,4.776 -3.28,7.861 0,3.189 1.138,5.892 3.414,8.108 2.276,2.216 5.084,3.325 8.423,3.325 2.171,0 3.998,-0.457 5.481,-1.371 1.497,-0.913 2.702,-2.343 3.616,-4.29 h -9.569 v -5.907 h 16.622 l 0.044,1.393 c 0,2.89 -0.748,5.63 -2.246,8.22 -1.497,2.591 -3.436,4.567 -5.817,5.93 -2.381,1.363 -5.173,2.044 -8.378,2.044 -3.429,0 -6.491,-0.741 -9.186,-2.224 -2.681,-1.497 -4.807,-3.623 -6.379,-6.378 -1.558,-2.756 -2.336,-5.728 -2.336,-8.917 0,-4.373 1.445,-8.176 4.335,-11.411 3.429,-3.848 7.891,-5.772 13.386,-5.772 2.875,0 5.563,0.531 8.064,1.595 2.111,0.898 4.178,2.44 6.199,4.627 z m 8.153,-5.391 h 18.037 v 6.154 h -11.792 v 5.975 h 11.792 v 6.042 h -11.792 v 8.692 h 11.792 V 226 h -18.037 z m 23.944,0 h 6.019 l 14.173,21.742 V 192.96 h 6.289 V 226 h -6.042 l -14.15,-21.675 V 226 h -6.289 z m 46.898,0 h 6.671 c 3.609,0 6.207,0.337 7.794,1.011 1.602,0.659 2.86,1.737 3.773,3.234 0.929,1.483 1.393,3.264 1.393,5.346 0,2.306 -0.606,4.222 -1.819,5.75 -1.198,1.527 -2.83,2.59 -4.897,3.189 -1.213,0.345 -3.421,0.517 -6.626,0.517 V 226 h -6.289 z m 6.289,12.915 h 1.999 c 1.573,0 2.666,-0.112 3.28,-0.337 0.614,-0.225 1.093,-0.591 1.437,-1.1 0.359,-0.525 0.539,-1.153 0.539,-1.887 0,-1.273 -0.494,-2.201 -1.482,-2.785 -0.719,-0.435 -2.052,-0.652 -3.998,-0.652 h -1.775 z m 19.541,-12.915 h 18.036 v 6.154 H 294.44 v 5.975 h 11.792 v 6.042 H 294.44 v 8.692 h 11.792 V 226 h -18.036 z m 23.899,0 h 6.671 c 3.608,0 6.206,0.337 7.794,1.011 1.602,0.659 2.86,1.737 3.773,3.234 0.928,1.483 1.393,3.264 1.393,5.346 0,2.306 -0.607,4.222 -1.82,5.75 -1.198,1.527 -2.83,2.59 -4.896,3.189 -1.213,0.345 -3.422,0.517 -6.626,0.517 V 226 h -6.289 z m 6.289,12.915 h 1.999 c 1.572,0 2.665,-0.112 3.279,-0.337 0.614,-0.225 1.093,-0.591 1.438,-1.1 0.359,-0.525 0.539,-1.153 0.539,-1.887 0,-1.273 -0.494,-2.201 -1.483,-2.785 -0.718,-0.435 -2.051,-0.652 -3.998,-0.652 h -1.774 z m 16.262,-12.915 h 18.26 v 6.199 h -6.019 V 226 h -6.379 v -26.841 h -5.862 z m 22.124,0 h 6.244 V 226 h -6.244 z m 13.364,0 h 7.457 c 4.806,0 8.378,0.599 10.714,1.797 2.336,1.183 4.26,3.114 5.772,5.795 1.513,2.68 2.269,5.81 2.269,9.388 0,2.546 -0.427,4.889 -1.281,7.031 -0.838,2.126 -2.006,3.893 -3.503,5.3 -1.483,1.408 -3.093,2.381 -4.83,2.92 -1.737,0.539 -4.746,0.809 -9.029,0.809 h -7.569 z m 6.266,6.064 v 20.822 h 2.92 c 2.875,0 4.957,-0.33 6.244,-0.989 1.303,-0.658 2.366,-1.767 3.19,-3.324 0.823,-1.557 1.235,-3.474 1.235,-5.75 0,-3.504 -0.981,-6.221 -2.942,-8.153 -1.767,-1.737 -4.605,-2.606 -8.513,-2.606 z m 25.943,-6.064 h 18.036 v 6.154 h -11.792 v 5.975 h 11.792 v 6.042 h -11.792 v 8.692 h 11.792 V 226 h -18.036 z m 41.238,4.492 -4.649,4.11 c -1.633,-2.276 -3.295,-3.414 -4.987,-3.414 -0.823,0 -1.497,0.225 -2.021,0.674 -0.524,0.435 -0.786,0.929 -0.786,1.483 0,0.554 0.187,1.078 0.561,1.572 0.509,0.659 2.044,2.074 4.605,4.245 2.396,2.007 3.848,3.272 4.357,3.796 1.273,1.288 2.171,2.523 2.695,3.706 0.54,1.168 0.809,2.448 0.809,3.841 0,2.71 -0.936,4.949 -2.808,6.716 -1.871,1.767 -4.312,2.65 -7.322,2.65 -2.351,0 -4.402,-0.576 -6.154,-1.729 -1.737,-1.153 -3.227,-2.965 -4.47,-5.436 l 5.278,-3.189 c 1.588,2.919 3.415,4.379 5.481,4.379 1.078,0 1.984,-0.314 2.718,-0.943 0.733,-0.629 1.1,-1.355 1.1,-2.179 0,-0.748 -0.277,-1.497 -0.831,-2.246 -0.554,-0.748 -1.774,-1.894 -3.661,-3.436 -3.594,-2.935 -5.915,-5.196 -6.963,-6.783 -1.048,-1.603 -1.572,-3.197 -1.572,-4.785 0,-2.291 0.868,-4.252 2.605,-5.884 1.752,-1.648 3.909,-2.471 6.469,-2.471 1.647,0 3.212,0.382 4.694,1.145 1.498,0.764 3.115,2.157 4.852,4.178 z"
       fill="url(#paint1_linear)"
       id="path4" />
  </g>
  <g
     filter="url(#filter1_i)"
     id="g10">
    <path
       d="M 44.6875,18.0312 H 53.25 L 63.875,50.0938 74.6562,18.0312 h 8.4376 L 90.8438,64 H 82.4062 L 77.4688,34.9688 67.6875,64 H 59.9688 L 50.3125,34.9688 45.2812,64 H 36.75 Z M 122.062,30 h 8.5 v 34 h -8.5 v -3.5938 c -1.666,1.5834 -3.343,2.7292 -5.031,3.4376 -1.666,0.6874 -3.479,1.0312 -5.437,1.0312 -4.396,0 -8.198,-1.6979 -11.406,-5.0938 -3.2088,-3.4166 -4.813,-7.6562 -4.813,-12.7187 0,-5.25 1.5521,-9.5521 4.656,-12.9063 3.104,-3.3541 6.875,-5.0312 11.313,-5.0312 2.041,0 3.958,0.3854 5.75,1.1562 1.791,0.7709 3.448,1.9271 4.968,3.4688 z m -8.968,7 c -2.646,0 -4.844,0.9375 -6.594,2.8125 -1.75,1.8542 -2.625,4.2396 -2.625,7.1563 0,2.9374 0.885,5.3541 2.656,7.25 1.792,1.8958 3.99,2.8437 6.594,2.8437 2.687,0 4.917,-0.9271 6.687,-2.7813 1.771,-1.875 2.657,-4.3229 2.657,-7.3437 0,-2.9583 -0.886,-5.3542 -2.657,-7.1875 -1.77,-1.8333 -4.01,-2.75 -6.718,-2.75 z m 24.094,-7 h 7.312 v 4.2812 c 0.792,-1.6874 1.844,-2.9687 3.156,-3.8437 1.313,-0.875 2.75,-1.3125 4.313,-1.3125 1.104,0 2.26,0.2917 3.469,0.875 l -2.657,7.3438 c -1,-0.5 -1.823,-0.75 -2.469,-0.75 -1.312,0 -2.427,0.8124 -3.343,2.4374 -0.896,1.625 -1.344,4.8126 -1.344,9.5626 l 0.031,1.6562 V 64 h -8.468 z m 25.843,-14 c 1.5,0 2.781,0.5417 3.844,1.625 1.083,1.0833 1.625,2.3958 1.625,3.9375 0,1.5208 -0.531,2.8229 -1.594,3.9063 -1.062,1.0624 -2.333,1.5937 -3.812,1.5937 -1.521,0 -2.823,-0.5417 -3.906,-1.625 -1.063,-1.1042 -1.594,-2.4375 -1.594,-4 0,-1.5 0.531,-2.7813 1.594,-3.8437 C 160.25,16.5312 161.531,16 163.031,16 Z m -4.281,14 h 8.562 v 34 h -8.562 z m 16.312,0 h 8.5 v 3.4688 c 1.938,-1.625 3.688,-2.75 5.25,-3.375 1.584,-0.6459 3.198,-0.9688 4.844,-0.9688 3.375,0 6.24,1.1771 8.594,3.5312 1.979,2 2.969,4.9584 2.969,8.875 V 64 h -8.438 V 49.0938 c 0,-4.0626 -0.187,-6.7605 -0.562,-8.0938 -0.354,-1.3333 -0.99,-2.3438 -1.907,-3.0312 -0.895,-0.7084 -2.01,-1.0626 -3.343,-1.0626 -1.729,0 -3.219,0.5834 -4.469,1.75 -1.229,1.1459 -2.083,2.7396 -2.562,4.7813 -0.25,1.0625 -0.376,3.3646 -0.376,6.9063 V 64 h -8.5 z m 72.5,19.4688 h -27.406 c 0.396,2.4166 1.448,4.3437 3.156,5.7812 1.73,1.4167 3.928,2.125 6.594,2.125 3.188,0 5.927,-1.1146 8.219,-3.3438 l 7.187,3.375 c -1.791,2.5417 -3.937,4.4271 -6.437,5.6563 -2.5,1.2083 -5.469,1.8125 -8.906,1.8125 -5.334,0 -9.677,-1.6771 -13.031,-5.0312 -3.355,-3.375 -5.032,-7.5938 -5.032,-12.6563 0,-5.1875 1.667,-9.4896 5,-12.9063 3.354,-3.4374 7.552,-5.1562 12.594,-5.1562 5.354,0 9.708,1.7188 13.062,5.1562 3.355,3.4167 5.032,7.9376 5.032,13.5626 z M 239,42.75 c -0.562,-1.8958 -1.677,-3.4375 -3.344,-4.625 -1.646,-1.1875 -3.562,-1.7812 -5.75,-1.7812 -2.375,0 -4.458,0.6666 -6.25,2 -1.125,0.8333 -2.166,2.302 -3.125,4.4062 z"
       fill="url(#paint2_linear)"
       id="path8" />
  </g>
  <defs
     id="defs61">
    <filter
       id="filter0_i"
       x="2.13379"
       y="76.625999"
       width="449.69199"
       height="154.205"
       filterUnits="userSpaceOnUse"
       color-interpolation-filters="sRGB">
      <feFlood
         flood-opacity="0"
         result="BackgroundImageFix"
         id="feFlood12" />
      <feBlend
         mode="normal"
         in="SourceGraphic"
         in2="BackgroundImageFix"
         result="shape"
         id="feBlend14" />
      <feColorMatrix
         in="SourceAlpha"
         type="matrix"
         values="0 0 0 0 0 0 0 0 0 0 0 0 0 0 0 0 0 0 127 0"
         result="hardAlpha"
         id="feColorMatrix16" />
      <feOffset
         dy="4"
         id="feOffset18" />
      <feGaussianBlur
         stdDeviation="2"
         id="feGaussianBlur20" />
      <feComposite
         in2="hardAlpha"
         operator="arithmetic"
         k2="-1"
         k3="1"
         id="feComposite22"
         k1="0"
         k4="0" />
      <feColorMatrix
         type="matrix"
         values="0 0 0 0 0 0 0 0 0 0 0 0 0 0 0 0 0 0 0.25 0"
         id="feColorMatrix24" />
      <feBlend
         mode="normal"
         in2="shape"
         result="effect1_innerShadow"
         id="feBlend26" />
    </filter>
    <filter
       id="filter1_i"
       x="36.75"
       y="16"
       width="210.84399"
       height="52.875"
       filterUnits="userSpaceOnUse"
       color-interpolation-filters="sRGB">
      <feFlood
         flood-opacity="0"
         result="BackgroundImageFix"
         id="feFlood29" />
      <feBlend
         mode="normal"
         in="SourceGraphic"
         in2="BackgroundImageFix"
         result="shape"
         id="feBlend31" />
      <feColorMatrix
         in="SourceAlpha"
         type="matrix"
         values="0 0 0 0 0 0 0 0 0 0 0 0 0 0 0 0 0 0 127 0"
         result="hardAlpha"
         id="feColorMatrix33" />
      <feOffset
         dy="4"
         id="feOffset35" />
      <feGaussianBlur
         stdDeviation="2"
         id="feGaussianBlur37" />
      <feComposite
         in2="hardAlpha"
         operator="arithmetic"
         k2="-1"
         k3="1"
         id="feComposite39"
         k1="0"
         k4="0" />
      <feColorMatrix
         type="matrix"
         values="0 0 0 0 0 0 0 0 0 0 0 0 0 0 0 0 0 0 0.25 0"
         id="feColorMatrix41" />
      <feBlend
         mode="normal"
         in2="shape"
         result="effect1_innerShadow"
         id="feBlend43" />
    </filter>
    <radialGradient
       id="paint0_radial"
       cx="0"
       cy="0"
       r="1"
       gradientUnits="userSpaceOnUse"
       gradientTransform="matrix(10.621369,235.3054,-681.11547,30.744635,276.976,-6.14582)">
      <stop
         offset="0.0001"
         stop-color="#18ACFF"
         id="stop46" />
      <stop
         offset="1"
         stop-color="#555CFF"
         id="stop48" />
    </radialGradient>
    <linearGradient
       id="paint1_linear"
       x1="292.5"
       y1="39"
       x2="292.5"
       y2="236"
       gradientUnits="userSpaceOnUse">
      <stop
         stop-color="#003D44"
         id="stop51" />
      <stop
         offset="1"
         stop-color="#008383"
         id="stop53" />
    </linearGradient>
    <linearGradient
       id="paint2_linear"
       x1="327.5"
       y1="0"
       x2="327.5"
       y2="78"
       gradientUnits="userSpaceOnUse">
      <stop
         stop-color="#007475"
         id="stop56" />
      <stop
         offset="1"
         stop-color="#008383"
         id="stop58" />
    </linearGradient>
  </defs>
</svg>
