<svg width="25" height="24" viewBox="0 0 25 24" fill="none" xmlns="http://www.w3.org/2000/svg">
<path d="M22.751 16.9201V19.9201C22.7521 20.1986 22.6951 20.4743 22.5835 20.7294C22.4719 20.9846 22.3083 21.2137 22.103 21.402C21.8978 21.5902 21.6555 21.7336 21.3917 21.8228C21.1279 21.912 20.8483 21.9452 20.571 21.9201C17.4938 21.5857 14.538 20.5342 11.941 18.8501C9.5248 17.3148 7.47631 15.2663 5.94097 12.8501C4.25095 10.2413 3.19921 7.27109 2.87097 4.1801C2.84598 3.90356 2.87885 3.62486 2.96747 3.36172C3.0561 3.09859 3.19854 2.85679 3.38574 2.65172C3.57293 2.44665 3.80078 2.28281 4.05476 2.17062C4.30875 2.05843 4.58331 2.00036 4.86097 2.0001H7.86097C8.34628 1.99532 8.81676 2.16718 9.18473 2.48363C9.5527 2.80008 9.79305 3.23954 9.86097 3.7201C9.98759 4.68016 10.2224 5.62282 10.561 6.5301C10.6955 6.88802 10.7246 7.27701 10.6449 7.65098C10.5651 8.02494 10.3798 8.36821 10.111 8.6401L8.84097 9.9101C10.2645 12.4136 12.3374 14.4865 14.841 15.9101L16.111 14.6401C16.3829 14.3712 16.7261 14.1859 17.1001 14.1062C17.4741 14.0264 17.863 14.0556 18.221 14.1901C19.1282 14.5286 20.0709 14.7635 21.031 14.8901C21.5167 14.9586 21.9604 15.2033 22.2775 15.5776C22.5946 15.9519 22.7631 16.4297 22.751 16.9201Z" stroke="#BFBFBF" stroke-width="2" stroke-linecap="round" stroke-linejoin="round"/>
</svg>
