<svg width="25" height="25" viewBox="0 0 25 25" fill="none" xmlns="http://www.w3.org/2000/svg">
<path d="M22.5049 17.5339V20.5339C22.506 20.8124 22.449 21.088 22.3374 21.3432C22.2258 21.5984 22.0622 21.8275 21.857 22.0157C21.6517 22.204 21.4095 22.3473 21.1456 22.4366C20.8818 22.5258 20.6022 22.5589 20.3249 22.5339C17.2477 22.1995 14.2919 21.148 11.6949 19.4639C9.2787 17.9285 7.23021 15.88 5.69488 13.4639C4.00486 10.8551 2.95312 7.88486 2.62488 4.79387C2.59989 4.51733 2.63275 4.23863 2.72138 3.97549C2.81 3.71236 2.95245 3.47056 3.13964 3.26549C3.32684 3.06042 3.55468 2.89658 3.80867 2.78439C4.06265 2.6722 4.33722 2.61413 4.61488 2.61387H7.61488C8.10018 2.60909 8.57067 2.78095 8.93864 3.0974C9.30661 3.41385 9.54695 3.85331 9.61488 4.33387C9.7415 5.29393 9.97633 6.23659 10.3149 7.14387C10.4494 7.50179 10.4785 7.89078 10.3988 8.26475C10.319 8.63871 10.1337 8.98198 9.86488 9.25387L8.59488 10.5239C10.0184 13.0274 12.0913 15.1003 14.5949 16.5239L15.8649 15.2539C16.1368 14.985 16.48 14.7997 16.854 14.72C17.228 14.6402 17.617 14.6693 17.9749 14.8039C18.8821 15.1424 19.8248 15.3772 20.7849 15.5039C21.2706 15.5724 21.7143 15.8171 22.0314 16.1914C22.3485 16.5657 22.517 17.0434 22.5049 17.5339Z" stroke="white" stroke-width="2" stroke-linecap="round" stroke-linejoin="round"/>
</svg>
