<svg width="17" height="17" viewBox="0 0 17 17" fill="none" xmlns="http://www.w3.org/2000/svg">
<path fill-rule="evenodd" clip-rule="evenodd" d="M14.1376 2.83906C12.6465 1.34628 10.6636 0.523825 8.55107 0.522949C4.19803 0.522949 0.655275 4.0656 0.653524 8.41981C0.652941 9.81172 1.01655 11.1705 1.70769 12.3681L0.58728 16.4604L4.77389 15.3622C5.92747 15.9915 7.22619 16.3231 8.54786 16.3235H8.55117C12.9037 16.3235 16.4469 12.7805 16.4485 8.42614C16.4494 6.31586 15.6287 4.33174 14.1376 2.83906ZM8.55107 14.9897H8.54835C7.37055 14.9893 6.21541 14.6727 5.20745 14.0748L4.96786 13.9325L2.48346 14.5842L3.14658 12.162L2.99046 11.9136C2.33336 10.8685 1.98638 9.66055 1.98697 8.4203C1.98833 4.80119 4.93303 1.85678 8.5537 1.85678C10.307 1.85736 11.9551 2.54101 13.1944 3.78175C14.4337 5.02249 15.1158 6.67169 15.1152 8.42565C15.1136 12.045 12.1691 14.9897 8.55107 14.9897ZM12.1516 10.0736C11.9543 9.97475 10.9841 9.49752 10.8032 9.43157C10.6224 9.36571 10.4907 9.33293 10.3593 9.5304C10.2277 9.72787 9.8496 10.1724 9.73442 10.304C9.61925 10.4357 9.50427 10.4523 9.3069 10.3534C9.10953 10.2547 8.47374 10.0462 7.71996 9.37398C7.13339 8.85074 6.73739 8.20454 6.62221 8.00708C6.50723 7.80941 6.62124 7.71292 6.70879 7.60436C6.9224 7.33909 7.13631 7.06098 7.20207 6.92937C7.26792 6.79766 7.23495 6.68239 7.18553 6.58365C7.13631 6.48492 6.74167 5.51363 6.57727 5.1184C6.41696 4.73378 6.25442 4.78572 6.13321 4.77969C6.01823 4.77395 5.88662 4.77279 5.75501 4.77279C5.62349 4.77279 5.40968 4.8221 5.22875 5.01977C5.04792 5.21733 4.5382 5.69466 4.5382 6.66595C4.5382 7.63724 5.24529 8.57555 5.34392 8.70726C5.44256 8.83897 6.73544 10.8321 8.71489 11.6868C9.1857 11.8903 9.5532 12.0116 9.83987 12.1025C10.3126 12.2527 10.7427 12.2315 11.0828 12.1807C11.4619 12.124 12.2501 11.7033 12.4147 11.2424C12.5791 10.7814 12.5791 10.3864 12.5297 10.304C12.4805 10.2217 12.3489 10.1724 12.1516 10.0736Z" fill="#003756"/>
</svg>
