<svg width="620" height="236" fill="none" xmlns="http://www.w3.org/2000/svg"><g filter="url(#filter0_i)"><path d="M33.897 76.626h17.836v61.953c0 9.86-.782 16.779-2.348 20.757-1.566 3.978-4.147 7.152-7.744 9.521-3.597 2.328-7.914 3.492-12.95 3.492-10.283 0-19.043-4.507-26.279-13.521l12.822-11.997c2.836 3.216 5.248 5.374 7.237 6.475 1.989 1.1 3.914 1.65 5.776 1.65 1.904 0 3.322-.804 4.253-2.412.931-1.608 1.397-5.142 1.397-10.601V76.626zm37.26 24.312h17.52v33.261c0 6.475.444 10.982 1.333 13.521.888 2.496 2.306 4.443 4.253 5.84 1.989 1.396 4.422 2.094 7.299 2.094 2.878 0 5.311-.677 7.3-2.031 2.032-1.396 3.534-3.428 4.507-6.094.72-1.989 1.079-6.242 1.079-12.758v-33.833h17.393V130.2c0 12.061-.952 20.313-2.857 24.756-2.327 5.417-5.755 9.585-10.283 12.505-4.528 2.878-10.283 4.316-17.265 4.316-7.575 0-13.711-1.692-18.409-5.078-4.655-3.385-7.934-8.104-9.838-14.155-1.355-4.19-2.032-11.807-2.032-22.852v-28.754zm70.713 0h17.647l17.456 40.751 17.392-40.751h17.583L182.559 170h-11.236l-29.453-69.062zm149.487 39.545h-55.669c.805 4.909 2.942 8.824 6.412 11.744 3.512 2.877 7.976 4.316 13.393 4.316 6.475 0 12.04-2.264 16.695-6.792l14.599 6.855c-3.639 5.163-7.998 8.993-13.076 11.49-5.078 2.454-11.108 3.681-18.091 3.681-10.833 0-19.656-3.406-26.47-10.219-6.813-6.856-10.219-15.425-10.219-25.708 0-10.538 3.385-19.276 10.156-26.216 6.813-6.983 15.34-10.474 25.581-10.474 10.876 0 19.72 3.491 26.533 10.474 6.813 6.94 10.22 16.123 10.22 27.549l-.064 3.3zm-17.392-13.647c-1.143-3.851-3.407-6.982-6.792-9.395-3.343-2.412-7.236-3.618-11.68-3.618-4.824 0-9.056 1.354-12.695 4.063-2.285 1.692-4.401 4.676-6.348 8.95h37.515zm31.484-25.898h17.266v7.045c3.935-3.3 7.49-5.586 10.664-6.855 3.216-1.312 6.496-1.968 9.839-1.968 6.855 0 12.674 2.391 17.456 7.173 4.02 4.063 6.03 10.072 6.03 18.027V170h-17.139v-30.278c0-8.252-.38-13.732-1.142-16.441-.72-2.708-2.01-4.76-3.872-6.157-1.82-1.439-4.084-2.158-6.792-2.158-3.513 0-6.538 1.185-9.077 3.555-2.497 2.327-4.232 5.564-5.205 9.711-.508 2.159-.762 6.835-.762 14.029V170h-17.266v-69.062zm129.112 0h17.265V170h-17.265v-7.3c-3.386 3.216-6.792 5.544-10.22 6.983-3.386 1.396-7.067 2.094-11.045 2.094-8.929 0-16.652-3.449-23.169-10.346-6.517-6.94-9.775-15.552-9.775-25.835 0-10.664 3.152-19.403 9.458-26.216 6.305-6.813 13.964-10.22 22.978-10.22 4.147 0 8.04.783 11.68 2.349 3.639 1.566 7.003 3.914 10.093 7.046v-7.617zm-18.218 14.218c-5.375 0-9.839 1.905-13.394 5.713-3.554 3.766-5.332 8.612-5.332 14.536 0 5.967 1.799 10.876 5.396 14.727 3.639 3.851 8.104 5.776 13.393 5.776 5.459 0 9.987-1.883 13.584-5.649 3.597-3.809 5.396-8.781 5.396-14.917 0-6.009-1.799-10.876-5.396-14.6s-8.146-5.586-13.647-5.586z" fill="url(#paint0_radial)"/><path d="M34.14 198.777l-4.402 4.201c-2.994-3.16-6.364-4.74-10.107-4.74-3.16 0-5.825 1.078-7.996 3.235-2.156 2.156-3.235 4.814-3.235 7.973 0 2.201.48 4.156 1.438 5.863.958 1.707 2.313 3.047 4.065 4.02 1.752.973 3.699 1.46 5.84 1.46 1.827 0 3.497-.337 5.009-1.011 1.512-.688 3.174-1.931 4.986-3.728l4.268 4.447c-2.44 2.381-4.747 4.036-6.918 4.964-2.171.913-4.65 1.37-7.435 1.37-5.136 0-9.343-1.625-12.623-4.874-3.264-3.264-4.896-7.442-4.896-12.533 0-3.294.741-6.222 2.223-8.782 1.498-2.561 3.632-4.62 6.402-6.177a18.117 18.117 0 018.984-2.336c2.725 0 5.346.576 7.862 1.729a18.803 18.803 0 016.536 4.919zm21.136-6.648c4.672 0 8.685 1.692 12.04 5.076 3.369 3.384 5.053 7.51 5.053 12.376 0 4.822-1.662 8.902-4.986 12.241-3.31 3.339-7.33 5.009-12.062 5.009-4.956 0-9.074-1.714-12.353-5.143-3.28-3.43-4.92-7.502-4.92-12.219 0-3.16.764-6.065 2.292-8.715 1.527-2.65 3.623-4.747 6.289-6.289 2.68-1.557 5.563-2.336 8.647-2.336zm-.067 6.154c-3.055 0-5.623 1.063-7.704 3.19-2.082 2.126-3.122 4.829-3.122 8.108 0 3.654 1.31 6.544 3.93 8.67 2.037 1.662 4.373 2.493 7.008 2.493 2.98 0 5.518-1.078 7.614-3.234 2.097-2.156 3.145-4.814 3.145-7.974 0-3.144-1.056-5.802-3.167-7.974-2.111-2.186-4.68-3.279-7.704-3.279zm23.09-5.323h6.289v27.043h9.164V226H78.299v-33.04zm20.26 0h6.289v27.043h9.164V226H98.559v-33.04zm30.322 0h6.379L147.973 226h-6.536l-2.583-6.806h-13.477L122.682 226h-6.536l12.735-33.04zm3.234 8.76l-4.402 11.342h8.782l-4.38-11.342zm51.256-3.369l-4.425 4.379c-2.8-2.964-6.064-4.447-9.793-4.447-3.249 0-5.974 1.078-8.175 3.235-2.187 2.156-3.28 4.776-3.28 7.861 0 3.189 1.138 5.892 3.414 8.108 2.276 2.216 5.084 3.325 8.423 3.325 2.171 0 3.998-.457 5.481-1.371 1.497-.913 2.702-2.343 3.616-4.29h-9.569v-5.907h16.622l.044 1.393c0 2.89-.748 5.63-2.246 8.22-1.497 2.591-3.436 4.567-5.817 5.93-2.381 1.363-5.173 2.044-8.378 2.044-3.429 0-6.491-.741-9.186-2.224-2.681-1.497-4.807-3.623-6.379-6.378-1.558-2.756-2.336-5.728-2.336-8.917 0-4.373 1.445-8.176 4.335-11.411 3.429-3.848 7.891-5.772 13.386-5.772 2.875 0 5.563.531 8.064 1.595 2.111.898 4.178 2.44 6.199 4.627zm8.153-5.391h18.037v6.154h-11.792v5.975h11.792v6.042h-11.792v8.692h11.792V226h-18.037v-33.04zm23.944 0h6.019l14.173 21.742V192.96h6.289V226h-6.042l-14.15-21.675V226h-6.289v-33.04zm46.898 0h6.671c3.609 0 6.207.337 7.794 1.011 1.602.659 2.86 1.737 3.773 3.234.929 1.483 1.393 3.264 1.393 5.346 0 2.306-.606 4.222-1.819 5.75-1.198 1.527-2.83 2.59-4.897 3.189-1.213.345-3.421.517-6.626.517V226h-6.289v-33.04zm6.289 12.915h1.999c1.573 0 2.666-.112 3.28-.337.614-.225 1.093-.591 1.437-1.1.359-.525.539-1.153.539-1.887 0-1.273-.494-2.201-1.482-2.785-.719-.435-2.052-.652-3.998-.652h-1.775v6.761zm19.541-12.915h18.036v6.154H294.44v5.975h11.792v6.042H294.44v8.692h11.792V226h-18.036v-33.04zm23.899 0h6.671c3.608 0 6.206.337 7.794 1.011 1.602.659 2.86 1.737 3.773 3.234.928 1.483 1.393 3.264 1.393 5.346 0 2.306-.607 4.222-1.82 5.75-1.198 1.527-2.83 2.59-4.896 3.189-1.213.345-3.422.517-6.626.517V226h-6.289v-33.04zm6.289 12.915h1.999c1.572 0 2.665-.112 3.279-.337.614-.225 1.093-.591 1.438-1.1.359-.525.539-1.153.539-1.887 0-1.273-.494-2.201-1.483-2.785-.718-.435-2.051-.652-3.998-.652h-1.774v6.761zm16.262-12.915h18.26v6.199h-6.019V226h-6.379v-26.841h-5.862v-6.199zm22.124 0h6.244V226h-6.244v-33.04zm13.364 0h7.457c4.806 0 8.378.599 10.714 1.797 2.336 1.183 4.26 3.114 5.772 5.795 1.513 2.68 2.269 5.81 2.269 9.388 0 2.546-.427 4.889-1.281 7.031-.838 2.126-2.006 3.893-3.503 5.3-1.483 1.408-3.093 2.381-4.83 2.92-1.737.539-4.746.809-9.029.809h-7.569v-33.04zm6.266 6.064v20.822h2.92c2.875 0 4.957-.33 6.244-.989 1.303-.658 2.366-1.767 3.19-3.324.823-1.557 1.235-3.474 1.235-5.75 0-3.504-.981-6.221-2.942-8.153-1.767-1.737-4.605-2.606-8.513-2.606H376.4zm25.943-6.064h18.036v6.154h-11.792v5.975h11.792v6.042h-11.792v8.692h11.792V226h-18.036v-33.04zm41.238 4.492l-4.649 4.11c-1.633-2.276-3.295-3.414-4.987-3.414-.823 0-1.497.225-2.021.674-.524.435-.786.929-.786 1.483s.187 1.078.561 1.572c.509.659 2.044 2.074 4.605 4.245 2.396 2.007 3.848 3.272 4.357 3.796 1.273 1.288 2.171 2.523 2.695 3.706.54 1.168.809 2.448.809 3.841 0 2.71-.936 4.949-2.808 6.716-1.871 1.767-4.312 2.65-7.322 2.65-2.351 0-4.402-.576-6.154-1.729-1.737-1.153-3.227-2.965-4.47-5.436l5.278-3.189c1.588 2.919 3.415 4.379 5.481 4.379 1.078 0 1.984-.314 2.718-.943.733-.629 1.1-1.355 1.1-2.179 0-.748-.277-1.497-.831-2.246-.554-.748-1.774-1.894-3.661-3.436-3.594-2.935-5.915-5.196-6.963-6.783-1.048-1.603-1.572-3.197-1.572-4.785 0-2.291.868-4.252 2.605-5.884 1.752-1.648 3.909-2.471 6.469-2.471 1.647 0 3.212.382 4.694 1.145 1.498.764 3.115 2.157 4.852 4.178z" fill="url(#paint1_linear)"/></g><g filter="url(#filter1_i)"><path d="M44.688 18.031h8.562l10.625 32.063L74.656 18.03h8.438L90.844 64h-8.438L77.47 34.969 67.688 64h-7.72l-9.656-29.031L45.282 64H36.75l7.938-45.969zM122.061 30h8.5v34h-8.5v-3.594c-1.666 1.584-3.343 2.73-5.031 3.438-1.666.687-3.479 1.031-5.437 1.031-4.396 0-8.198-1.698-11.406-5.094-3.209-3.416-4.813-7.656-4.813-12.718 0-5.25 1.552-9.553 4.656-12.907 3.104-3.354 6.875-5.031 11.313-5.031 2.041 0 3.958.385 5.75 1.156 1.791.771 3.448 1.927 4.968 3.469V30zm-8.968 7c-2.646 0-4.844.938-6.594 2.813-1.75 1.854-2.625 4.24-2.625 7.156 0 2.937.885 5.354 2.656 7.25 1.792 1.896 3.99 2.843 6.594 2.843 2.687 0 4.917-.927 6.687-2.78 1.771-1.876 2.657-4.324 2.657-7.344 0-2.959-.886-5.355-2.657-7.188-1.77-1.833-4.01-2.75-6.718-2.75zm24.094-7h7.312v4.281c.792-1.687 1.844-2.968 3.156-3.843a7.616 7.616 0 014.313-1.313c1.104 0 2.26.292 3.469.875l-2.657 7.344c-1-.5-1.823-.75-2.469-.75-1.312 0-2.427.812-3.343 2.437-.896 1.625-1.344 4.813-1.344 9.563l.031 1.656V64h-8.468V30zm25.843-14c1.5 0 2.781.542 3.844 1.625 1.083 1.083 1.625 2.396 1.625 3.938 0 1.52-.531 2.822-1.594 3.906-1.062 1.062-2.333 1.593-3.812 1.593-1.521 0-2.823-.541-3.906-1.625-1.063-1.104-1.594-2.437-1.594-4 0-1.5.531-2.78 1.594-3.843C160.25 16.53 161.531 16 163.031 16zm-4.281 14h8.562v34h-8.562V30zm16.312 0h8.5v3.469c1.938-1.625 3.688-2.75 5.25-3.375a12.721 12.721 0 014.844-.969c3.375 0 6.24 1.177 8.594 3.531 1.979 2 2.969 4.959 2.969 8.875V64h-8.438V49.094c0-4.063-.187-6.76-.562-8.094-.354-1.333-.99-2.344-1.907-3.031-.895-.709-2.01-1.063-3.343-1.063-1.729 0-3.219.584-4.469 1.75-1.229 1.146-2.083 2.74-2.562 4.782-.25 1.062-.376 3.364-.376 6.906V64h-8.5V30zm72.5 19.469h-27.406c.396 2.416 1.448 4.343 3.156 5.781 1.73 1.417 3.928 2.125 6.594 2.125 3.188 0 5.927-1.115 8.219-3.344l7.187 3.375c-1.791 2.542-3.937 4.427-6.437 5.657-2.5 1.208-5.469 1.812-8.906 1.812-5.334 0-9.677-1.677-13.031-5.031-3.355-3.375-5.032-7.594-5.032-12.657 0-5.187 1.667-9.49 5-12.906 3.354-3.437 7.552-5.156 12.594-5.156 5.354 0 9.708 1.719 13.062 5.156 3.355 3.417 5.032 7.938 5.032 13.563l-.032 1.625zM239 42.75c-.562-1.896-1.677-3.438-3.344-4.625-1.646-1.188-3.562-1.781-5.75-1.781-2.375 0-4.458.666-6.25 2-1.125.833-2.166 2.302-3.125 4.406H239z" fill="url(#paint2_linear)"/></g><defs><linearGradient id="paint1_linear" x1="292.5" y1="39" x2="292.5" y2="236" gradientUnits="userSpaceOnUse"><stop stop-color="#003D44"/><stop offset="1" stop-color="#008383"/></linearGradient><linearGradient id="paint2_linear" x1="327.5" y1="0" x2="327.5" y2="78" gradientUnits="userSpaceOnUse"><stop stop-color="#007475"/><stop offset="1" stop-color="#008383"/></linearGradient><filter id="filter0_i" x="2.134" y="76.626" width="449.692" height="154.205" filterUnits="userSpaceOnUse" color-interpolation-filters="sRGB"><feFlood flood-opacity="0" result="BackgroundImageFix"/><feBlend in="SourceGraphic" in2="BackgroundImageFix" result="shape"/><feColorMatrix in="SourceAlpha" values="0 0 0 0 0 0 0 0 0 0 0 0 0 0 0 0 0 0 127 0" result="hardAlpha"/><feOffset dy="4"/><feGaussianBlur stdDeviation="2"/><feComposite in2="hardAlpha" operator="arithmetic" k2="-1" k3="1"/><feColorMatrix values="0 0 0 0 0 0 0 0 0 0 0 0 0 0 0 0 0 0 0.25 0"/><feBlend in2="shape" result="effect1_innerShadow"/></filter><filter id="filter1_i" x="36.75" y="16" width="210.844" height="52.875" filterUnits="userSpaceOnUse" color-interpolation-filters="sRGB"><feFlood flood-opacity="0" result="BackgroundImageFix"/><feBlend in="SourceGraphic" in2="BackgroundImageFix" result="shape"/><feColorMatrix in="SourceAlpha" values="0 0 0 0 0 0 0 0 0 0 0 0 0 0 0 0 0 0 127 0" result="hardAlpha"/><feOffset dy="4"/><feGaussianBlur stdDeviation="2"/><feComposite in2="hardAlpha" operator="arithmetic" k2="-1" k3="1"/><feColorMatrix values="0 0 0 0 0 0 0 0 0 0 0 0 0 0 0 0 0 0 0.25 0"/><feBlend in2="shape" result="effect1_innerShadow"/></filter><radialGradient id="paint0_radial" cx="0" cy="0" r="1" gradientUnits="userSpaceOnUse" gradientTransform="matrix(10.62137 235.3054 -681.11547 30.74464 276.976 -6.146)"><stop offset="0" stop-color="#18ACFF"/><stop offset="1" stop-color="#555CFF"/></radialGradient></defs></svg>