<svg width="17" height="17" fill="none" xmlns="http://www.w3.org/2000/svg"><path fill-rule="evenodd" clip-rule="evenodd" d="M14.138 2.84A7.846 7.846 0 008.55.522C4.198.523.655 4.066.654 8.42a7.88 7.88 0 001.054 3.948L.588 16.46l4.186-1.098a7.874 7.874 0 003.774.961h.003c4.353 0 7.896-3.543 7.897-7.897a7.853 7.853 0 00-2.31-5.587zM8.55 14.99h-.003a6.555 6.555 0 01-3.34-.915l-.24-.143-2.485.652.664-2.422-.157-.248A6.547 6.547 0 011.987 8.42a6.574 6.574 0 016.567-6.563 6.52 6.52 0 014.64 1.925 6.525 6.525 0 011.921 4.644c-.001 3.619-2.946 6.564-6.564 6.564zm3.6-4.916c-.197-.1-1.167-.576-1.348-.642-.18-.066-.312-.1-.444.098a11.5 11.5 0 01-.625.774c-.115.132-.23.148-.427.05-.197-.1-.833-.308-1.587-.98-.587-.523-.983-1.17-1.098-1.367-.115-.198 0-.294.087-.403.213-.265.427-.543.493-.675.066-.131.033-.247-.016-.345-.05-.1-.444-1.07-.609-1.466-.16-.384-.323-.332-.444-.338a7.886 7.886 0 00-.378-.007.725.725 0 00-.526.247c-.181.197-.69.675-.69 1.646 0 .971.706 1.91.805 2.041.099.132 1.391 2.125 3.37 2.98.472.203.84.325 1.126.415.473.15.903.13 1.243.079.379-.057 1.167-.478 1.332-.939.164-.46.164-.856.115-.938-.05-.082-.181-.132-.378-.23z" fill="#003756"/></svg>